<?xml version="1.0" encoding="UTF-8" standalone="no"?>
<svg
   width="793.70099"
   height="80"
   viewBox="0 0 210.00005 21.166667"
   version="1.1"
   fill="#000000"
   id="svg1"
   xmlns="http://www.w3.org/2000/svg"
   xmlns:svg="http://www.w3.org/2000/svg">
  <defs
     id="defs1" />
  <g
     id="layer1">
    <path
       d="m 19.94051,4.2316654 h 6.828048 L 18.855433,19.581539 H 10.783517 L 2.870392,4.2316654 h 6.8809779 l 5.0548721,9.9244876 z m 23.951115,0 h 6.828047 L 42.806548,19.581539 H 34.734631 L 26.821507,4.2316654 h 6.880978 l 5.054872,9.9244876 z m 16.514373,5.7959006 q 2.725925,0 4.472635,0.132326 1.773175,0.132327 3.069975,0.423445 1.323265,0.291119 1.984897,0.873355 0.688098,0.582237 0.979217,1.402661 0.317583,0.793959 0.317583,2.037828 0,1.085077 -0.158792,1.826106 -0.132326,0.714563 -0.582236,1.34973 -0.44991,0.608702 -1.190939,0.979216 -0.714563,0.370514 -1.958432,0.635167 -1.217404,0.264653 -2.884718,0.370515 -1.640848,0.105861 -3.969794,0.105861 -8.071917,0 -9.501043,-1.323265 l 1.720244,-4.39324 q 0.635168,0.423445 3.122906,0.714563 2.487738,0.264653 4.89608,0.264653 0.423445,0 1.164473,0 2.19662,0 2.884718,-0.05293 0.688098,-0.0794 0.688098,-0.39698 0,-0.873355 -5.134268,-0.873355 -2.090759,0 -3.572816,-0.105861 -1.455591,-0.132327 -2.725926,-0.44991 -1.243869,-0.317584 -1.984897,-0.84689 Q 51.301935,12.14479 50.87849,11.2979 50.48151,10.424545 50.48151,9.233607 q 0,-0.8733549 0.132327,-1.5614527 0.158792,-0.6880978 0.50284,-1.1909385 0.344049,-0.5293059 0.767494,-0.8998201 0.423445,-0.3969795 1.111543,-0.6616325 0.714563,-0.264653 1.429126,-0.4234448 0.741028,-0.1587918 1.826106,-0.2381877 1.085077,-0.079396 2.117224,-0.1058612 1.032146,-0.052931 2.487738,-0.052931 3.228766,0 5.240129,0.2117224 2.037828,0.2117224 2.911183,0.5028407 0.89982,0.2911183 1.905502,0.8204243 L 69.00722,9.8423089 Q 67.763351,9.3923988 65.275613,9.0748152 62.81434,8.7307663 60.458928,8.7307663 q -0.211722,0 -0.608702,0 -2.19662,0 -2.831787,0.079396 -0.635167,0.079396 -0.635167,0.4763754 0.02647,0.7410283 4.022726,0.7410283 z M 72.130125,1.0028988 h 6.166414 v 4.8431499 q 3.228767,-1.6143833 7.251493,-1.6143833 4.552031,0 7.14563,1.8790363 2.620065,1.8790362 2.620065,5.6106433 0,1.879036 -0.502841,3.308163 -0.50284,1.402661 -1.34973,2.276015 -0.846889,0.873355 -2.143689,1.429127 -1.2968,0.529306 -2.699461,0.741028 -1.402661,0.185257 -3.202301,0.185257 -4.604962,0 -7.119166,-1.773175 v 1.640849 h -6.166414 z m 6.166414,10.0038832 v 2.090759 q 0.741029,1.190938 2.037829,1.587918 1.296799,0.370514 3.863933,0.370514 4.552032,0 4.552032,-3.149371 0,-0.529306 -0.105861,-0.979216 Q 88.53861,10.477476 88.379819,10.186358 88.221027,9.8687742 87.903443,9.6305865 87.612325,9.3659335 87.400603,9.233607 87.215345,9.0748152 86.791901,8.968954 86.368456,8.8630928 86.183199,8.8366275 q -0.185257,-0.052931 -0.635167,-0.079396 -0.449911,-0.026465 -0.529306,-0.026465 -0.05293,0 -0.449911,0 -5.425386,0 -6.272276,2.2760155 z M 107.64656,4.1522695 q 1.95843,0 3.51988,0.1852571 1.56145,0.1587918 3.12291,0.6880978 1.56145,0.5028407 2.5936,1.3497303 1.03214,0.8468895 1.66731,2.2760157 0.63517,1.4026606 0.63517,3.3081626 0,2.170154 -0.79396,3.705142 -0.7675,1.534987 -2.30248,2.434807 -1.53499,0.873355 -3.54635,1.270335 -2.01137,0.370514 -4.73729,0.370514 -2.77886,0 -4.79022,-0.39698 -2.01136,-0.396979 -3.49342,-1.270334 -1.482057,-0.89982 -2.223085,-2.408342 -0.714563,-1.534988 -0.714563,-3.705142 0,-1.852571 0.582236,-3.255232 Q 97.775,7.3016401 98.754216,6.4547505 99.733432,5.607861 101.18902,5.078555 q 1.4556,-0.529306 2.99058,-0.7145631 1.56146,-0.2117224 3.46696,-0.2117224 z m 0.21172,11.2477525 q 2.32895,0 3.54635,-0.767494 1.24387,-0.793959 1.24387,-2.672995 0,-1.032147 -0.47638,-1.74671 -0.47637,-0.7410283 -1.27033,-1.0850772 -0.76749,-0.3440489 -1.53499,-0.4763754 -0.74103,-0.1587918 -1.58792,-0.1587918 -0.6087,0 -1.2174,0.1058612 -0.6087,0.079396 -1.24387,0.3175836 -0.63517,0.2381877 -1.11154,0.6087019 -0.44991,0.3705142 -0.7675,0.9792157 -0.29111,0.582237 -0.29111,1.323265 0,1.826106 1.138,2.699461 1.16448,0.873355 3.57282,0.873355 z m 34.32549,4.207982 h -6.08702 q 0,-0.661632 -0.0265,-1.40266 -2.80533,1.667313 -6.484,1.667313 -1.08508,0 -1.85257,-0.02647 -0.74103,-0.02646 -1.85257,-0.132326 -1.11155,-0.105862 -1.87904,-0.291119 -0.76749,-0.185257 -1.61438,-0.555771 -0.84689,-0.370514 -1.3762,-0.873355 -0.52931,-0.529306 -0.87335,-1.323265 -0.34405,-0.820424 -0.34405,-1.79964 0,-1.243869 0.79396,-2.143689 0.82042,-0.926286 2.22308,-1.455592 1.40266,-0.529306 3.06998,-0.767494 1.66731,-0.264653 3.59928,-0.264653 3.28169,0 5.92822,0.979216 -0.5293,-1.5879175 -1.79964,-2.0642929 -1.24387,-0.5028407 -3.96979,-0.5028407 -2.22309,0 -4.28738,0.3175836 -2.03783,0.2911183 -2.62006,0.4763754 -0.55578,0.1587918 -0.95276,0.2911183 l -1.37619,-4.1815173 q 4.4991,-1.6673139 9.6069,-1.6673139 1.11154,0 2.17016,0.079396 1.05861,0.052931 2.5142,0.3175836 1.45559,0.2381877 2.5936,0.6616325 1.16447,0.4234448 2.19662,1.2438691 1.03215,0.7939589 1.50852,1.8525709 0.7675,1.7467098 0.97922,4.4197054 0.21172,2.64653 0.21172,7.14563 z m -11.90938,-3.625746 q 1.93196,0 3.54635,-0.396979 1.61438,-0.423445 1.85257,-0.767494 0,-0.238187 0,-0.291118 -0.74103,-0.688098 -5.08134,-0.688098 -2.19662,0 -3.14937,0.264653 -0.95275,0.238188 -0.95275,0.767494 0,1.111542 3.78454,1.111542 z M 156.31623,4.2581307 q 3.75808,0 6.06056,1.5085221 0.18526,0.1058612 0.21172,0.1323265 l -2.30248,4.7108237 q -0.23819,-0.132327 -0.6881,-0.317584 -0.44991,-0.211722 -1.69378,-0.5557713 -1.24387,-0.3440489 -2.35541,-0.4234448 -0.97922,-0.052931 -1.85257,0.1058612 -0.87335,0.1587918 -1.3762,0.3440489 -0.50284,0.1587918 -1.138,0.608702 -0.60871,0.423445 -0.7675,0.582236 -0.13232,0.132327 -0.6087,0.582237 v 8.045451 h -6.16641 V 4.2316654 h 0.44991 5.7165 v 0 2.1436893 q 1.69378,-2.117224 6.51046,-2.117224 z m 22.73371,-3.2023013 h 6.13995 V 19.581539 h -6.13995 v -1.640848 q -2.51421,1.773175 -7.11917,1.773175 -1.11154,0 -2.01136,-0.0794 -0.89982,-0.05293 -1.95843,-0.238188 -1.05862,-0.211722 -1.87904,-0.555771 -0.82042,-0.344049 -1.61438,-0.952751 -0.79396,-0.608702 -1.32327,-1.402661 -0.50284,-0.820424 -0.82042,-2.011363 -0.31759,-1.217403 -0.31759,-2.69946 0,-1.8525712 0.79396,-3.3081627 0.82043,-1.4820568 2.19662,-2.3554116 1.3762,-0.8998202 3.09644,-1.3497303 1.74671,-0.4763754 3.70515,-0.4763754 4.02272,0 7.25149,1.6143833 z m 0,12.0946416 v -2.090758 q -0.84689,-2.2760161 -6.27228,-2.2760161 -0.0265,0 -0.10586,0 -0.34405,0 -0.55577,0 -0.18526,0 -0.6087,0.052931 -0.39698,0.026465 -0.6881,0.1058612 -0.26465,0.079396 -0.66163,0.2381877 -0.37052,0.1323265 -0.63517,0.3705142 -0.23819,0.2381877 -0.47638,0.555771 -0.23818,0.317583 -0.37051,0.793959 -0.10586,0.476375 -0.10586,1.058612 0,3.149371 4.5785,3.149371 2.56713,0 3.83746,-0.370515 1.2968,-0.396979 2.0643,-1.587918 z m 17.25538,-3.122905 q 2.72592,0 4.47263,0.132326 1.77318,0.132327 3.06998,0.423445 1.32326,0.291119 1.98489,0.873355 0.6881,0.582237 0.97922,1.402661 0.31758,0.793959 0.31758,2.037828 0,1.085077 -0.15879,1.826106 -0.13232,0.714563 -0.58223,1.34973 -0.44991,0.608702 -1.19094,0.979216 -0.71457,0.370514 -1.95844,0.635167 -1.2174,0.264653 -2.88471,0.370515 -1.64085,0.105861 -3.9698,0.105861 -8.07191,0 -9.50104,-1.323265 l 1.72024,-4.39324 q 0.63517,0.423445 3.12291,0.714563 2.48774,0.264653 4.89608,0.264653 0.42344,0 1.16447,0 2.19662,0 2.88472,-0.05293 0.6881,-0.0794 0.6881,-0.39698 0,-0.873355 -5.13427,-0.873355 -2.09076,0 -3.57282,-0.105861 -1.45559,-0.132327 -2.72592,-0.44991 -1.24387,-0.317584 -1.9849,-0.84689 -0.74103,-0.555771 -1.16447,-1.402661 -0.39698,-0.873355 -0.39698,-2.064293 0,-0.8733549 0.13233,-1.5614527 0.15879,-0.6880978 0.50284,-1.1909385 0.34405,-0.5293059 0.76749,-0.8998201 0.42344,-0.3969795 1.11154,-0.6616325 0.71457,-0.264653 1.42913,-0.4234448 0.74103,-0.1587918 1.8261,-0.2381877 1.08508,-0.079396 2.11723,-0.1058612 1.03214,-0.052931 2.48774,-0.052931 3.22876,0 5.24013,0.2117224 2.03782,0.2117224 2.91118,0.5028407 0.89982,0.2911183 1.9055,0.8204243 l -1.9055,4.2079826 q -1.24387,-0.4499101 -3.73161,-0.7674937 -2.46127,-0.3440489 -4.81668,-0.3440489 -0.21173,0 -0.6087,0 -2.19662,0 -2.83179,0.079396 -0.63517,0.079396 -0.63517,0.4763754 0.0265,0.7410287 4.02273,0.7410287 z"
       id="text1"
       style="font-weight:bold;font-size:26.4653px;font-family:Hanson;-inkscape-font-specification:'Hanson Bold';stroke-width:0.13784"
       aria-label="vvsboards" />
  </g>
</svg>
